<svg id="Layer_1" data-name="Layer 1" xmlns="http://www.w3.org/2000/svg" viewBox="0 0 308.41 287.34"><defs><style>.cls-1{opacity:0.8;}.cls-2{fill:#202020;}</style></defs><title>EaLoading</title><g class="cls-1"><path class="cls-2" d="M255.35,204.47c1.32-3.14,2.2-8.38,1.81-14.77a59.81,59.81,0,0,0-1.64-10.19,67.44,67.44,0,0,0-3.74-10.79,76.55,76.55,0,0,0-5.71-10.38,79.34,79.34,0,0,0-7.11-9.15,87.85,87.85,0,0,0-7.58-7.43c-2.51-2.13-4.87-4-7-5.54a106.88,106.88,0,0,0-16.65-8.94c-0.91-.4-1.06-0.5-0.56-0.35a29,29,0,0,1,3.26,1.25,68.2,68.2,0,0,1,14,8,81.23,81.23,0,0,1,16.23,14.15,81.8,81.8,0,0,0-9.42-12.48,99.65,99.65,0,0,0-9.95-9.39,89.64,89.64,0,0,0-16.12-6.29,84.36,84.36,0,0,0-38.22-1.51,91.89,91.89,0,0,0-35.53,15.1,81.18,81.18,0,0,0-14.73,13.48A134.34,134.34,0,0,0,105,165.49l0.62-1.18c0.42-.76,1-1.91,1.81-3.29A87.92,87.92,0,0,1,115,150a88,88,0,0,1,51.92-31.47,88.54,88.54,0,0,1,18.59-1.59,91.33,91.33,0,0,1,13.11,1.25l3.62,0.7c0.83,0.17,1.27.29,1.27,0.29-1-.37-2-0.65-3-1l-0.67-.15c-0.44-.09-1.08-0.26-1.91-0.4-1.66-.28-4-0.73-6.9-1a88.24,88.24,0,0,0-21.24.24,90.68,90.68,0,0,0-11.25,2.21c-1.76.52-3.48,1-5.07,1.53s-3.12,1-4.47,1.62c-2.75,1.06-5,2.13-6.54,2.86-0.78.36-1.37,0.7-1.78,0.91l-0.63.33c-3.13,1.72-6.18,3.66-9.36,5.63l1.43-.94c0.87-.55,2-1.34,3.17-2s2.35-1.4,3.25-1.88l1.51-.79a112.41,112.41,0,0,1,12.54-6.23,82,82,0,0,1,14-4.5c6.25-1.18,13.52-.95,19.74-0.69,5.11,0.24,9.68,1.77,14.22,3.29,0,0,2.25.46,4.45,1.11,1.11,0.3,2.21.6,3,.89l1.36,0.45a19.16,19.16,0,0,1,2.76.61,0.57,0.57,0,0,1-.09-0.1c-1.43-1.65-7.11-4.91-15.76-7.22a82.54,82.54,0,0,0-32-1.92A88,88,0,0,0,147,116.06a85.79,85.79,0,0,0-15,6.84,70.6,70.6,0,0,0-17.14,13.33,52.52,52.52,0,0,0-8.58,14.29c-2.2,5.12-4,10.41-6.29,16-1.52,3.7-3.61,6.6-3.75,9.82,0.43,0.46.45,2.07,0.45,3.65-0.51,1.91-1,3.83-1.55,5.7s-1.05,3.75-1.45,5.59a32.83,32.83,0,0,0-.8,5.37,15.4,15.4,0,0,0,.39,4.92c0.28,2.12-1.92,6.12-3.64,10.05-0.44,1-.87,1.94-1.25,2.85s-0.65,1.75-.87,2.48c-0.44,1.47-.58,2.5-0.11,2.67,3.46,1.26,3.92,1.37,3.69,2.55a17.19,17.19,0,0,0-.53,2.8,18.31,18.31,0,0,0,.47,5.87,10.58,10.58,0,0,0,2.11,3.07,11.44,11.44,0,0,1,2.44,3.88A21.62,21.62,0,0,0,99.41,247c0.88,1.2,1.76,2.44,2.9,3.79,0.56,0.69,1.14,1.42,1.75,2.24s1.33,1.66,2.05,2.63c4.78,5.42,7.22,8.94,9.81,12.24a28,28,0,0,0,4.54,4.54,20.46,20.46,0,0,0,3.12,2.07,26.87,26.87,0,0,0,4.06,1.87c0.74,0.3,5.31,3,10,5s9.17,3.46,9.17,3.46c6.59,3.41,12.57,4.62,18,5.73a72.43,72.43,0,0,1,16.12,4.65c6.83-1.66,14.43-1.94,22.34-3s16-2.85,22.3-6.49,10.8-5.94,15.42-8.09a87.82,87.82,0,0,0,14.78-8.21c1.45-1.26,2.55-2.53,3.59-3.59a13.51,13.51,0,0,1,2.93-2.64c1.06-.61,1.84-2.46,2.7-4.44,0.41-1,.79-2.08,1.25-3.07a16.94,16.94,0,0,1,1.51-2.7l1,1.72c0.76-1.06,2.35-3.14,3.06-4.25s1.09-.54,1.46,0c0.73,1.12,1.43,2.29,3.29.56a71,71,0,0,0,8.79-15.52,82.52,82.52,0,0,0,.85-17.81,5.44,5.44,0,0,1-2-1.76c-0.19-1.69-.57-3.38-0.86-5-1.66-1.08-3.57-.86-4.68-1.55-2.44-.13-4.83-1.84-7.17-3.2s-4.64-2.43-6.89-1.75c-0.67.27-1.12,2.3-1.8,4.62a36.23,36.23,0,0,1-1.26,3.52,11.51,11.51,0,0,1-1.8,2.85c-0.8.64-2.17-1.33-3.8-2.23a6.59,6.59,0,0,1-.62,2.27,1.89,1.89,0,0,1-1,.93c-0.72.23-1.52-.27-2.16-1.17l-0.6,1.72-2.13-1.28a67.78,67.78,0,0,1-7.46,12.44c-2.74,3.88-5.36,7.42-6.92,11.52a11.35,11.35,0,0,0-.6,1.51c-0.21.56-.43,1.18-0.63,1.82-0.38,1.31-.86,2.62-1.22,3.72a3.51,3.51,0,0,1-1.6,1.5c-0.72.44-1.46,0.82-1.83,1,0,2.15,1.48,3.39,2.19,5.12-1.58.87-3.61,2-5.74,3-1,.58-2.18,1.06-3.21,1.64s-2.13,1.06-3.08,1.63a21.8,21.8,0,0,0-2.68,1.61,9.92,9.92,0,0,0-2,1.65c-1,1.17-1.42,2.35-.66,3.74a13.72,13.72,0,0,0-1.78.84,12.13,12.13,0,0,0-1.43.84c-0.86.59-1.55,1.26-2.28,1.86a22.22,22.22,0,0,1-2.4,1.9,14.38,14.38,0,0,1-3.57,1.62,63.88,63.88,0,0,1-13.59,2.66,69.26,69.26,0,0,1-15.53-.38A56.52,56.52,0,0,1,157,272.8c-1-.34-1.91-0.81-2.84-1.2s-1.82-.83-2.68-1.27a66.47,66.47,0,0,1-22.85-18.61,73,73,0,0,1-12.43-24.09,85.07,85.07,0,0,1-3.51-26.48,95.36,95.36,0,0,1,5-28.37,65.79,65.79,0,0,1,17.25-26.69,68.56,68.56,0,0,1,27.93-16A71.41,71.41,0,0,1,194,128a70.23,70.23,0,0,1,26.86,10.11,71,71,0,0,1,18.46,17.14A69.41,69.41,0,0,1,249,173.62a70.37,70.37,0,0,1,3.41,15.31,87.32,87.32,0,0,1,.47,10l0.41,0.83c0.24,0.5.58,1.17,0.86,1.86Z" transform="translate(-35.67 -63.46)"/><animateTransform attributeType="xml" attributeName="transform" type="rotate" from="0 180 50" to="360 180 50" dur="4s" repeatCount="indefinite"/></g><g class="cls-1"><path class="cls-2" d="M294.41,108.55a6.77,6.77,0,0,0-1.42-.73,12.25,12.25,0,0,0-2.08-.49,15.74,15.74,0,0,0-5.35.43,19.89,19.89,0,0,0-5.32,2.38,21.69,21.69,0,0,0-2.13,1.59c-0.67.5-1.18,1.05-1.68,1.5a11.17,11.17,0,0,0-.94,1.08c-0.28.35-.57,0.66-0.8,1-0.43.66-.89,1.2-1.2,1.7s-0.17.11,0.33-.64c0.26-.37.58-0.86,1-1.41a20,20,0,0,1,1.61-1.73,21.21,21.21,0,0,1,4.14-3.48A22,22,0,0,0,274,113.5c-0.21.3-.43,0.59-0.63,0.9l-0.56,1a16.41,16.41,0,0,0-1,2A21.38,21.38,0,0,0,270,127a24.72,24.72,0,0,0,2.51,9.67A21.11,21.11,0,0,0,275.4,141c0.68,0.72,1.32,1.48,2,2.07l0.92,0.88,0.8,0.7-0.29-.2a8.28,8.28,0,0,1-.79-0.58,23.88,23.88,0,0,1-5.53-6.28A23.5,23.5,0,0,1,269.28,127c0-.89,0-1.75,0-2.56s0.16-1.58.26-2.28l0.4-1.89c0.12-.56.31-1,0.43-1.43l0.29-.91a2.45,2.45,0,0,1,.13-0.31c-0.15.24-.25,0.49-0.39,0.73l-0.23.65a12.8,12.8,0,0,0-.53,1.73,18.31,18.31,0,0,0-.51,2.52c-0.06.47-.14,1-0.19,1.45l-0.06,1.51a9.92,9.92,0,0,0,0,1.52l0.09,1.47c0.16,0.94.27,1.84,0.45,2.59l0.48,1.81c0.14,0.43.24,0.67,0.24,0.67,0.35,0.87.69,1.75,1.11,2.64l-0.2-.4a9.56,9.56,0,0,1-.41-0.9l-0.5-1.34A26.38,26.38,0,0,1,268.3,127a23.53,23.53,0,0,1,.17-2.6c0.17-.87.29-1.74,0.45-2.54a12.62,12.62,0,0,1,.61-1.84c0.27-.58.6-1.12,0.89-1.67-0.06,0,1-2.17,1-2.17a3.14,3.14,0,0,1,.24-0.7l0,0a3.87,3.87,0,0,0-1.16,1.17,13.3,13.3,0,0,0-1.52,2.56,21.66,21.66,0,0,0-1.91,8.26,22.57,22.57,0,0,0,1.54,8.94,18.23,18.23,0,0,0,2.86,5,13.51,13.51,0,0,0,1.67,1.51c0.62,0.42,1.27.8,1.9,1.18l2,1c0.66,0.36,1.38.66,2.06,1.08a8.13,8.13,0,0,0,2.43,1.35,2,2,0,0,1,1-.09,12.28,12.28,0,0,1,1.42.63l1.4,0.59a4.8,4.8,0,0,0,2.67.45c0.56,0,1.51.82,2.47,1.58s1.9,1.34,2,1.08c0.46-1.07.5-1.21,0.8-1.08a3.72,3.72,0,0,0,2.3.46c0.37,0,1.31-1,2-1.09a4.56,4.56,0,0,0,2.58-.64c0.71-.35,1.36-0.91,2.49-1.53a33.19,33.19,0,0,1,3.55-2.15,5.69,5.69,0,0,0,2.57-2.84c0-.1.27-0.44,0.57-0.89l0.5-.74,0.48-.87a17.79,17.79,0,0,0,1.14-2.31,15.09,15.09,0,0,0,2.1-4.45c0.28-.67.44-1.34,0.76-2a14.51,14.51,0,0,1,1.18-2,29.8,29.8,0,0,1,0-5.9,25.09,25.09,0,0,0-.12-3.13c-0.06-.51-0.14-1-0.23-1.51a14.19,14.19,0,0,0-.46-1.39,32,32,0,0,1-1.46-4.34l-0.24-1-0.3-1a12.7,12.7,0,0,0-.86-2.3c-0.27-.44-0.55-0.79-0.78-1.11a3,3,0,0,1-.57-0.89,2.34,2.34,0,0,0-1.08-.87,5.05,5.05,0,0,1-1.46-.89l0.56-.29c-0.24-.25-0.71-0.78-1-1s-0.08-.34.11-0.45c0.37-.22.76-0.42,0.39-1a19.13,19.13,0,0,0-1.75-1.64c-0.64-.49-1.31-1-2-1.43q-1.22-.28-2.42-0.5a23.33,23.33,0,0,0-2.4-.21,1.86,1.86,0,0,1-.58.61,13,13,0,0,0-1.39.14,15.8,15.8,0,0,0-.65,1.5,7,7,0,0,1-1.18,2.24,3.59,3.59,0,0,0-.76,2.21,2.24,2.24,0,0,0,1.06.76,6.47,6.47,0,0,1,.81.49,2.67,2.67,0,0,1,.6.68c0.11,0.28-.45.67-0.76,1.18,0.95,0.29.79,0.89,0.27,1.29l0.38,0.21-0.44.68a16.53,16.53,0,0,1,2.47,2.44,7.89,7.89,0,0,0,1.1,1.15,4.13,4.13,0,0,0,1.26.82,16.86,16.86,0,0,0,1.71.61,1.57,1.57,0,0,1,.43.9,6,6,0,0,0,1.67-.63c0.11,0.43.3,0.95,0.42,1.52,0.07,0.28.15,0.56,0.25,0.82s0.14,0.55.23,0.79a3.39,3.39,0,0,0,.32.67,1.81,1.81,0,0,0,.36.51,1.05,1.05,0,0,0,1.15.19,3.13,3.13,0,0,0,.77,1.4,2.68,2.68,0,0,1,.79,1.53,16.33,16.33,0,0,1-.34,7.15,12.65,12.65,0,0,1-1.55,3.84c-0.24.45-.54,0.86-0.79,1.26a15.69,15.69,0,0,1-5.32,4.92,17.79,17.79,0,0,1-6.3,2.12,22.46,22.46,0,0,1-6.52-.07,25.7,25.7,0,0,1-6.79-2,15.77,15.77,0,0,1-6.12-5,16.41,16.41,0,0,1-3.07-7.44,17.47,17.47,0,0,1,.63-7.76,16.69,16.69,0,0,1,8.48-10A15.35,15.35,0,0,1,286.8,109a18.23,18.23,0,0,1,6.2.17Z" transform="translate(-35.67 -63.46)"/><animateTransform attributeType="xml" attributeName="transform" type="rotate" from="360 180 50" to="0 180 50" dur="4s" repeatCount="indefinite"/></g></svg>